<?xml version="1.0" encoding="utf-8"?>
<!-- Generator: Adobe Illustrator 26.2.1, SVG Export Plug-In . SVG Version: 6.00 Build 0)  -->
<svg
  version="1.1"
  id="Layer_1"
  xmlns="http://www.w3.org/2000/svg"
  xmlns:xlink="http://www.w3.org/1999/xlink"
  x="0px"
  y="0px"
  viewBox="0 0 2464 538"
  style="enable-background: new 0 0 2464 538"
  xml:space="preserve"
>
  <style type="text/css">
    .st1 {
      fill: url(#SVGID_1_);
    }
  </style>
  <linearGradient
    id="SVGID_1_"
    gradientUnits="userSpaceOnUse"
    x1="1546.1927"
    y1="-323.6434"
    x2="876.4785"
    y2="836.3358"
  >
    <stop offset="0" style="stop-color: #00eaff" />
    <stop offset="0.2525" style="stop-color: #0080ff" />
    <stop offset="0.4974" style="stop-color: #8000ff" />
    <stop offset="0.7499" style="stop-color: #e619e6" />
    <stop offset="0.9991" style="stop-color: #ff0000" />
  </linearGradient>
  <path
    class="st1"
    d="M673,202.6c12.4,0,27.4,6.8,35.6,17.2l30.8-32.5c-17.5-16.1-42.9-24.6-65.5-24.6c-37.3,0-77.4,18.4-77.4,62.7
	c0,36.2,25.7,49.2,51.1,57.4c26.3,8.5,41.5,13.3,41.5,28.5c0,16.1-13,21.8-27.7,21.8c-15.8,0-33.6-9-43.2-21.2l-31.6,32.2
	c17.5,18.4,46.3,28.8,74.9,28.8c39.6,0,76.6-20.6,76.6-66.7c0-39.8-35-51.4-62.2-60.2c-18.9-5.9-30.8-10.2-30.8-23.5
	C645.1,206.8,660.6,202.6,673,202.6z M816.6,285.1h83.1v-38.7h-83.1v-37.6h87.9v-41H769.9v200h139.6v-41.2h-93V285.1z M503,167.8
	h-48.6v200h126v-42.1H503V167.8z M138.5,167.8H65v200h48.3v-75.4h24c41.8,0,79.4-16.7,79.4-63C216.7,183.6,182.3,167.8,138.5,167.8z
	 M133.7,254h-20.3v-47.2h21.2c17.2,0,33.9,3.7,33.9,22.9C168.4,248.6,151.8,254,133.7,254z M1041.5,328.9
	c-33.3,0-56.8-24.9-56.8-61.3c0-35.3,24-61.3,57.6-61.3c15.3,0,31.4,5.9,40.4,18.4l32.8-32.8c-16.7-19.2-46.9-29.4-74.9-29.4
	c-61,0-108.5,41-108.5,105.1c0,62.7,46.1,105.7,107.6,105.7c33.6,0,60.2-12.7,77.7-33.1l-33.6-31.6
	C1075.4,320.4,1060.4,328.9,1041.5,328.9z M1985.6,192.5c-8-18.2-10.8-35.4-6.3-54.3c1.6-6.8,1.7-13.1-3.6-18.9
	c-1.8,1-4,1.9-5.5,3.3c-2.4,2.3-4.6,4.9-6.4,7.6c-21.4,31.2-39.3,64.2-49.1,101c-8,29.9-15.4,60.1-23.7,89.9
	c-3.5,12.7-8.6,24.8-12.2,35.1c-3.8,1.9-4.7,2.7-5.7,2.9c-19,4.1-33.6,13.2-40,33c-2.4,7.6-8.7,12.6-16.6,15.2
	c-4.9,1.7-9.4,4.4-14.1,6.7c9.4,2.8,18.1,2.8,26.6,4c16.8,2.4,31.8-1.9,46-10.2c9.4-5.5,15.7-13.7,19.1-24.2
	c5.7-17.2,11.4-34.5,17.2-52.2c27.6,0,52.8,0,77.7,0c5.5,13.2,10.6,25.3,15.4,36.7h54c-2.3-5.9-3.8-10.5-5.6-14.9
	C2030.6,299.6,2009,245.6,1985.6,192.5z M1862.5,368.2c-0.8,0.4-1.7,0.8-2.5,1.2C1860.8,369,1861.6,368.6,1862.5,368.2
	c-6.9,13-9.8,24.5-25.3,30.2c0.3-1.1,0.6-2.2,0.9-3.2c0.3-1,0.6-1.9,0.9-2.8c0.2-0.5,0.3-1,0.5-1.3c0.2-0.5,0.4-1,0.6-1.3
	c0.2-0.5,0.4-0.9,0.6-1.3c0.2-0.5,0.4-0.9,0.6-1.2c0.4-0.9,0.9-1.6,1.3-2.4c0.2-0.4,0.5-0.8,0.8-1.1c0.2-0.3,0.5-0.7,0.7-1
	c0.1-0.1,0.1-0.2,0.2-0.3c0.2-0.3,0.5-0.6,0.7-1c0.3-0.4,0.6-0.7,0.9-1c0.3-0.4,0.6-0.7,0.9-1c0.3-0.3,0.6-0.7,1-1
	c0.3-0.3,0.6-0.6,0.9-0.9c1.1-1.1,2.4-2.2,3.7-3.1c0.4-0.3,0.9-0.7,1.3-1c0.5-0.3,0.9-0.7,1.3-1c0.4-0.3,0.8-0.5,1.1-0.8
	c0.6-0.4,1.1-0.7,1.7-1c0.8-0.5,1.6-1,2.5-1.3c0.9-0.5,1.7-0.9,2.7-1.3C1862.6,368,1862.6,368.1,1862.5,368.2z M1922.8,223
	c0.3-0.9,0.6-1.7,0.9-2.6c2.7-7.1,6.5-13.7,10.9-19.8c-4.9,13.9-9.7,27.8-14.6,41.6C1919.7,235.4,1920.8,229.1,1922.8,223z
	 M1933.6,289c7.5-17.2,14.4-33.1,22.3-51.4c6.7,18.4,12.4,34.1,18.6,51.4H1933.6z M367.1,288.5c0,21.5-10.2,41.2-37.6,41.2
	c-27.1,0-37.6-19.8-37.6-41.2V167.8h-48v124.6c0,48,32.8,80.8,85.3,80.8c52.3,0,86.2-32.8,86.2-80.8V167.8h-48.3V288.5z
	 M1776.9,367.8h54.8v-200h-46.9l1.1,130.5h-0.8l-80.2-130.5h-55.1v200h46.9l-1.1-130.8h0.8L1776.9,367.8z M1264.4,243.5h-78v-75.7
	h-48.3v200h48.3v-83.6h78v83.6h48.3v-200h-48.3V243.5z M2226.5,228.8c0-45.6-38-60.2-76.3-60.2h-76v199.2h47.3v-79h16.3l43,79h56.3
	l-52.1-85.2C2210.7,274.7,2226.5,255.5,2226.5,228.8z M2143.9,253.9h-22.8v-46.5h25.6c14.4,0,32.1,3.6,32.1,22.3
	C2178.9,249.9,2159.5,253.9,2143.9,253.9z M1839,392.3c-0.3,0.9-0.7,1.8-0.9,2.8C1838.4,394.1,1838.7,393.2,1839,392.3z
	 M1559.9,367.8h48.6v-200h-48.6V367.8z M2381.8,168.7c-27.1-1-75.2-0.9-108.3,0h-35.3v13.1c-0.3,5.4-0.5,11,0,16.7v11.2h1.8
	c0.1,0.5,0.2,1,0.4,1.5c17.8,0,35.2,0,54.1,0v126.3c-0.1,4.9-0.1,9.9,0,14.9v15.4h1.2c0,0.2,0,0.4,0.1,0.6c16.7,0,31.9,0,48.3,0
	c0-52.6,0-104,0-158.2c19.7,0,37.1,0,54.8,0.1c0-0.2,0-0.4,0-0.6h0.1v-41H2381.8z M1413.3,167.8l-83.9,200h52.5l14.7-39.3h77.4
	l15.5,39.3h53.7l-83.1-200H1413.3z M1410.5,289.9l25.4-68.7l24.9,68.7H1410.5z"
  />
</svg>
