<?xml version="1.0" encoding="utf-8"?>
<!-- Generator: Adobe Illustrator 26.2.1, SVG Export Plug-In . SVG Version: 6.00 Build 0)  -->
<svg
  version="1.1"
  id="Layer_1"
  xmlns="http://www.w3.org/2000/svg"
  xmlns:xlink="http://www.w3.org/1999/xlink"
  x="0px"
  y="0px"
  viewBox="0 0 2464 538"
  style="enable-background: new 0 0 2464 538"
  xml:space="preserve"
>
  <style type="text/css">
    .st1 {
      fill: url(#SVGID_1_);
    }
    .st2 {
      fill: #ffffff;
    }
    .st3 {
      fill: url(#SVGID_00000178199717637528175180000002666674577698809002_);
    }
  </style>
  <g>
    <linearGradient
      id="SVGID_1_"
      gradientUnits="userSpaceOnUse"
      x1="362.2654"
      y1="83.5631"
      x2="147.7632"
      y2="455.0919"
    >
      <stop offset="0" style="stop-color: #00eaff" />
      <stop offset="0.2525" style="stop-color: #0080ff" />
      <stop offset="0.4974" style="stop-color: #8000ff" />
      <stop offset="0.7499" style="stop-color: #e619e6" />
      <stop offset="0.9991" style="stop-color: #ff0000" />
    </linearGradient>
    <path
      class="st1"
      d="M362.3,83.6H149.3l119.9,70l-80.1,2.5l-40.9,70.7V83.6h-0.5L40.5,269.3l107.2,185.8h214.5l107.3-185.8
		L362.3,83.6z M321.6,155.1v89l-25.3-43.7l-49.5-1.5L321.6,155.1z M124.7,269.4l74.3-43.2l-24.8,43.2l24.8,42.1L124.7,269.4z
		 M148.2,454.6V310.7l40.9,70.7l80.1,2.5L148.2,454.6z M321.6,383.5l-74.8-43.7l49.5-1.5l25.3-43.7V383.5z M213.8,339.1v-143
		l123.7,72.7L213.8,339.1z M348.8,338.5l40.1-69.9l-40.1-68.1l120.1,68.1L348.8,338.5z"
    />
    <polygon class="st2" points="149.3,83.6 148.2,83.6 148.2,82.9 	" />
  </g>
  <linearGradient
    id="SVGID_00000047048596013735989210000013018131478326989729_"
    gradientUnits="userSpaceOnUse"
    x1="1765.913"
    y1="-183.2675"
    x2="1249.5018"
    y2="711.183"
  >
    <stop offset="0" style="stop-color: #00eaff" />
    <stop offset="0.2525" style="stop-color: #0080ff" />
    <stop offset="0.4974" style="stop-color: #8000ff" />
    <stop offset="0.7499" style="stop-color: #e619e6" />
    <stop offset="0.9991" style="stop-color: #ff0000" />
  </linearGradient>
  <path
    style="
      fill: url(#SVGID_00000047048596013735989210000013018131478326989729_);
    "
    d="M1092.6,222.5c9.6,0,21.1,5.2,27.4,13.3
	l23.7-25.1c-13.5-12.4-33.1-19-50.5-19c-28.8,0-59.7,14.2-59.7,48.4c0,27.9,19.8,37.9,39.4,44.2c20.3,6.5,32,10.2,32,22
	c0,12.4-10,16.8-21.4,16.8c-12.2,0-25.9-7-33.3-16.3l-24.4,24.8c13.5,14.2,35.7,22.2,57.7,22.2c30.5,0,59-15.9,59-51.4
	c0-30.7-27-39.7-47.9-46.4c-14.6-4.6-23.7-7.8-23.7-18.1C1071.1,225.8,1083,222.5,1092.6,222.5z M1203.3,286.1h64.1v-29.8h-64.1v-29
	h67.8v-31.6h-103.7v154.2H1275v-31.8h-71.7V286.1z M961.5,195.7H924v154.2h97.2v-32.5h-59.7V195.7z M680.4,195.7h-56.6v154.2H661
	v-58.2h18.5c32.2,0,61.2-12.9,61.2-48.6C740.8,207.9,714.2,195.7,680.4,195.7z M676.7,262.1H661v-36.4h16.3
	c13.3,0,26.1,2.8,26.1,17.6C703.5,258,690.7,262.1,676.7,262.1z M1376.7,319.9c-25.7,0-43.8-19.2-43.8-47.3
	c0-27.2,18.5-47.3,44.4-47.3c11.8,0,24.2,4.6,31.2,14.2l25.3-25.3c-12.9-14.8-36.2-22.7-57.7-22.7c-47.1,0-83.7,31.6-83.7,81
	c0,48.4,35.5,81.5,83,81.5c25.9,0,46.4-9.8,59.9-25.5l-25.9-24.4C1402.9,313.3,1391.3,319.9,1376.7,319.9z M2104.8,214.7
	c-6.2-14-8.3-27.3-4.8-41.8c1.2-5.2,1.3-10.1-2.8-14.6c-1.4,0.8-3.1,1.5-4.3,2.6c-1.8,1.8-3.5,3.7-4.9,5.9
	c-16.5,24.1-30.3,49.5-37.9,77.9c-6.2,23.1-11.9,46.3-18.3,69.3c-2.7,9.8-6.6,19.2-9.4,27.1c-2.9,1.5-3.6,2.1-4.4,2.2
	c-14.7,3.2-25.9,10.2-30.8,25.5c-1.8,5.9-6.7,9.7-12.8,11.7c-3.7,1.3-7.3,3.4-10.9,5.1c7.3,2.1,13.9,2.1,20.5,3.1
	c12.9,1.8,24.5-1.5,35.5-7.9c7.3-4.3,12.1-10.6,14.8-18.6c4.4-13.3,8.8-26.6,13.3-40.2c21.3,0,40.7,0,59.9,0
	c4.3,10.2,8.1,19.5,11.9,28.3h41.6c-1.8-4.6-2.9-8.1-4.3-11.5C2139.4,297.3,2122.8,255.7,2104.8,214.7z M2009.8,350.2
	c-0.6,0.3-1.3,0.6-1.9,1C2008.5,350.8,2009.2,350.5,2009.8,350.2c-5.3,10-7.5,18.9-19.5,23.3c0.2-0.9,0.4-1.7,0.7-2.5
	c0.2-0.7,0.4-1.5,0.7-2.1c0.1-0.4,0.2-0.7,0.4-1c0.1-0.4,0.3-0.7,0.4-1c0.1-0.4,0.3-0.7,0.4-1c0.1-0.4,0.3-0.7,0.4-1
	c0.3-0.7,0.7-1.2,1-1.8c0.1-0.3,0.4-0.6,0.6-0.9c0.1-0.2,0.4-0.5,0.5-0.7c0.1-0.1,0.1-0.1,0.1-0.2c0.1-0.2,0.4-0.4,0.5-0.7
	c0.2-0.3,0.4-0.5,0.7-0.8c0.2-0.3,0.4-0.5,0.7-0.8c0.2-0.2,0.4-0.5,0.7-0.7c0.2-0.2,0.4-0.4,0.7-0.7c0.9-0.9,1.8-1.7,2.9-2.4
	c0.3-0.2,0.7-0.5,1-0.7c0.4-0.2,0.7-0.5,1-0.7c0.3-0.2,0.6-0.4,0.9-0.6c0.4-0.3,0.9-0.5,1.3-0.8c0.6-0.4,1.2-0.7,1.9-1
	c0.7-0.4,1.3-0.7,2.1-1C2009.9,350.1,2009.9,350.1,2009.8,350.2z M2056.3,238.2c0.2-0.7,0.4-1.3,0.7-2c2.1-5.5,5-10.6,8.4-15.3
	c-3.7,10.7-7.5,21.4-11.2,32.1C2054,247.8,2054.8,242.9,2056.3,238.2z M2064.7,289.2c5.8-13.3,11.1-25.5,17.2-39.6
	c5.1,14.2,9.5,26.3,14.3,39.6H2064.7z M856.7,288.7c0,16.6-7.8,31.8-29,31.8c-20.9,0-29-15.2-29-31.8v-93h-37v96.1
	c0,37,25.3,62.3,65.8,62.3c40.3,0,66.4-25.3,66.4-62.3v-96.1h-37.3V288.7z M1943.8,349.9h42.3V195.7h-36.2l0.9,100.6h-0.7
	l-61.9-100.6h-42.5v154.2h36.2l-0.9-100.9h0.7L1943.8,349.9z M1548.6,254.1h-60.1v-58.4h-37.3v154.2h37.3v-64.5h60.1v64.5h37.3
	V195.7h-37.3V254.1z M2290.5,242.7c0-35.2-29.3-46.4-58.8-46.4h-58.6v153.6h36.5V289h12.6l33.2,60.9h43.4l-40.2-65.7
	C2278.3,278.1,2290.5,263.3,2290.5,242.7z M2226.8,262.1h-17.5v-35.8h19.7c11.1,0,24.7,2.8,24.7,17.2
	C2253.8,259,2238.8,262.1,2226.8,262.1z M1991.7,368.8c-0.2,0.7-0.5,1.4-0.7,2.1C1991.3,370.2,1991.5,369.5,1991.7,368.8z
	 M1776.5,349.9h37.5V195.7h-37.5V349.9z M2410.3,196.4c-20.9-0.8-58-0.7-83.5,0h-27.2v10.1c-0.3,4.2-0.4,8.4,0,12.9v8.7h1.4
	c0.1,0.4,0.2,0.8,0.3,1.2c13.7,0,27.1,0,41.7,0v97.4c-0.1,3.8-0.1,7.6,0,11.5V350h0.9c0,0.1,0,0.3,0.1,0.4c12.8,0,24.6,0,37.2,0
	c0-40.5,0-80.2,0-122c15.2,0,28.6,0,42.3,0.1c0-0.1,0-0.3,0-0.4h0.1v-31.6H2410.3z M1663.4,195.7l-64.7,154.2h40.5l11.3-30.3h59.7
	l12,30.3h41.4l-64.1-154.2H1663.4z M1661.3,289.8l19.6-52.9l19.2,52.9H1661.3z"
  />
</svg>
